<svg xmlns="http://www.w3.org/2000/svg" xmlns:xlink="http://www.w3.org/1999/xlink" width="500" zoomAndPan="magnify" viewBox="0 0 375 374.999991" height="500" preserveAspectRatio="xMidYMid meet" version="1.0"><path fill="#909e86" d="M 189.15625 107.898438 C 203.503906 107.898438 215.074219 96.25 215.074219 81.980469 C 215.074219 67.710938 203.503906 56.140625 189.15625 56.0625 C 174.808594 56.0625 163.234375 67.710938 163.234375 81.980469 C 163.234375 96.25 174.808594 107.898438 189.15625 107.898438 Z M 189.15625 59.300781 C 202.269531 59.300781 212.140625 68.636719 212.140625 81.75 C 212.140625 94.863281 202.269531 104.582031 189.15625 104.660156 C 175.964844 104.660156 165.703125 94.863281 165.703125 81.75 C 165.703125 68.636719 176.042969 59.300781 189.15625 59.300781 Z M 189.15625 59.300781 " fill-opacity="1" fill-rule="nonzero"/><path fill="#909e86" d="M 116.953125 221.910156 C 139.941406 221.910156 151.28125 200.699219 156.910156 167.449219 C 158.609375 157.578125 161.539062 133.433594 163.003906 125.5625 C 163.160156 124.5625 163.621094 124.40625 163.699219 124.40625 C 163.777344 124.40625 164.160156 124.636719 164.316406 125.5625 C 165.859375 133.277344 168.097656 155.339844 169.792969 166.0625 C 175.269531 200.851562 181.828125 217.28125 189.230469 217.28125 C 196.636719 217.28125 203.117188 200.851562 208.59375 166.0625 C 210.289062 155.339844 212.527344 133.277344 214.070312 125.5625 C 214.226562 124.636719 214.609375 124.40625 214.6875 124.40625 C 214.765625 124.40625 215.226562 124.5625 215.382812 125.5625 C 216.847656 133.433594 219.777344 157.578125 221.476562 167.449219 C 227.105469 200.699219 238.445312 221.910156 261.433594 221.910156 C 271.152344 221.910156 280.949219 214.121094 280.5625 203.089844 C 280.332031 193.984375 273.851562 186.734375 265.367188 186.734375 C 254.414062 186.734375 249.941406 195.605469 250.867188 201.777344 C 251.636719 207.101562 255.878906 211.109375 261.433594 210.417969 C 267.914062 209.644531 268.300781 200.15625 265.832031 200.3125 C 263.980469 200.3125 265.90625 206.636719 261.511719 207.871094 C 257.960938 208.875 253.566406 205.632812 253.566406 201.007812 C 253.566406 197.226562 256.34375 190.207031 265.445312 190.207031 C 273.234375 190.207031 276.476562 196.453125 276.863281 202.394531 C 277.480469 210.726562 269.457031 218.515625 262.28125 218.515625 C 240.992188 218.515625 231.964844 202.78125 224.945312 166.0625 C 224.175781 162.128906 218.3125 127.878906 217.078125 122.246094 C 216.617188 120.085938 215.691406 118.621094 214.535156 118.621094 C 213.992188 118.621094 212.992188 119.777344 212.757812 120.78125 C 211.0625 128.339844 205.738281 163.4375 205.355469 166.0625 C 201.109375 192.753906 195.015625 213.425781 189.15625 213.578125 C 183.292969 213.425781 177.277344 192.753906 173.03125 166.0625 C 172.648438 163.4375 167.324219 128.339844 165.628906 120.78125 C 165.394531 119.777344 164.394531 118.621094 163.851562 118.621094 C 162.695312 118.621094 161.769531 120.085938 161.308594 122.246094 C 160.074219 127.878906 154.210938 162.128906 153.441406 166.0625 C 146.417969 202.78125 137.394531 218.515625 116.105469 218.515625 C 108.929688 218.515625 100.90625 210.726562 101.523438 202.394531 C 101.910156 196.453125 105.152344 190.207031 112.941406 190.207031 C 122.042969 190.207031 124.820312 197.226562 124.820312 201.007812 C 124.820312 205.632812 120.425781 208.875 116.875 207.871094 C 112.480469 206.636719 114.40625 200.390625 112.554688 200.3125 C 110.085938 200.15625 110.472656 209.644531 116.953125 210.417969 C 122.507812 211.109375 126.75 207.101562 127.519531 201.777344 C 128.445312 195.605469 123.972656 186.734375 113.019531 186.734375 C 104.535156 186.734375 98.054688 193.984375 97.824219 203.089844 C 97.4375 214.121094 107.234375 221.910156 116.953125 221.910156 Z M 116.953125 221.910156 " fill-opacity="1" fill-rule="nonzero"/><path fill="#909e86" d="M 242.6875 239.34375 C 213.839844 239.34375 199.027344 264.953125 189.847656 274.132812 C 189.617188 274.363281 189.308594 274.828125 189.230469 274.828125 C 189.15625 274.828125 188.847656 274.363281 188.613281 274.132812 C 179.433594 264.953125 164.625 239.34375 135.773438 239.34375 C 99.289062 239.34375 89.335938 264.027344 89.335938 279.226562 C 89.335938 299.433594 107.386719 318.179688 135.773438 318.179688 C 166.011719 318.179688 182.210938 289.097656 188.613281 282.695312 C 188.769531 282.542969 189.078125 282.15625 189.230469 282.15625 C 189.386719 282.15625 189.695312 282.542969 189.847656 282.695312 C 196.25 289.097656 212.449219 318.179688 242.6875 318.179688 C 271.074219 318.179688 289.125 299.433594 289.125 279.226562 C 289.125 264.027344 279.175781 239.34375 242.6875 239.34375 Z M 135.773438 313.398438 C 113.480469 313.398438 93.425781 298.742188 93.425781 279.300781 C 93.425781 256.390625 113.558594 243.664062 136.160156 243.664062 C 158.761719 243.664062 186.070312 275.597656 186.070312 278.761719 C 186.070312 282.386719 161.539062 313.398438 135.773438 313.398438 Z M 242.6875 313.398438 C 216.925781 313.398438 192.394531 282.386719 192.394531 278.761719 C 192.394531 275.597656 219.46875 243.664062 242.304688 243.664062 C 265.136719 243.664062 285.039062 256.390625 285.039062 279.300781 C 285.039062 298.742188 264.980469 313.398438 242.6875 313.398438 Z M 242.6875 313.398438 " fill-opacity="1" fill-rule="nonzero"/></svg>