<svg xmlns="http://www.w3.org/2000/svg" xmlns:xlink="http://www.w3.org/1999/xlink" width="500" zoomAndPan="magnify" viewBox="0 0 375 374.999991" height="500" preserveAspectRatio="xMidYMid meet" version="1.0"><defs><g/><clipPath id="7b1c65d5af"><path d="M 60 159.015625 L 72 159.015625 L 72 171 L 60 171 Z M 60 159.015625 " clip-rule="nonzero"/></clipPath><clipPath id="94cdb74688"><rect x="0" width="236" y="0" height="49"/></clipPath></defs><g clip-path="url(#7b1c65d5af)"><path fill="#909e86" d="M 65.804688 170.652344 C 68.84375 170.652344 71.292969 168.1875 71.292969 165.167969 C 71.292969 162.148438 68.84375 159.699219 65.804688 159.679688 C 62.769531 159.679688 60.320312 162.148438 60.320312 165.167969 C 60.320312 168.1875 62.769531 170.652344 65.804688 170.652344 Z M 65.804688 160.367188 C 68.582031 160.367188 70.671875 162.34375 70.671875 165.117188 C 70.671875 167.894531 68.582031 169.949219 65.804688 169.964844 C 63.015625 169.964844 60.84375 167.894531 60.84375 165.117188 C 60.84375 162.34375 63.03125 160.367188 65.804688 160.367188 Z M 65.804688 160.367188 " fill-opacity="1" fill-rule="nonzero"/></g><path fill="#909e86" d="M 50.527344 194.78125 C 55.390625 194.78125 57.789062 190.292969 58.980469 183.253906 C 59.339844 181.164062 59.960938 176.054688 60.273438 174.390625 C 60.304688 174.179688 60.402344 174.144531 60.417969 174.144531 C 60.433594 174.144531 60.515625 174.195312 60.550781 174.390625 C 60.875 176.023438 61.347656 180.691406 61.707031 182.960938 C 62.867188 190.324219 64.253906 193.800781 65.824219 193.800781 C 67.390625 193.800781 68.761719 190.324219 69.921875 182.960938 C 70.28125 180.691406 70.753906 176.023438 71.078125 174.390625 C 71.113281 174.195312 71.195312 174.144531 71.210938 174.144531 C 71.226562 174.144531 71.324219 174.179688 71.355469 174.390625 C 71.667969 176.054688 72.289062 181.164062 72.648438 183.253906 C 73.839844 190.292969 76.238281 194.78125 81.101562 194.78125 C 83.160156 194.78125 85.234375 193.132812 85.152344 190.796875 C 85.101562 188.871094 83.730469 187.335938 81.9375 187.335938 C 79.617188 187.335938 78.671875 189.214844 78.867188 190.519531 C 79.03125 191.644531 79.925781 192.496094 81.101562 192.347656 C 82.472656 192.183594 82.554688 190.175781 82.035156 190.210938 C 81.640625 190.210938 82.050781 191.546875 81.121094 191.808594 C 80.367188 192.023438 79.4375 191.335938 79.4375 190.355469 C 79.4375 189.558594 80.027344 188.070312 81.953125 188.070312 C 83.601562 188.070312 84.285156 189.394531 84.367188 190.652344 C 84.5 192.414062 82.800781 194.0625 81.28125 194.0625 C 76.777344 194.0625 74.867188 190.730469 73.382812 182.960938 C 73.21875 182.128906 71.976562 174.878906 71.714844 173.6875 C 71.617188 173.230469 71.421875 172.921875 71.175781 172.921875 C 71.0625 172.921875 70.851562 173.167969 70.800781 173.378906 C 70.441406 174.976562 69.316406 182.40625 69.234375 182.960938 C 68.335938 188.609375 67.046875 192.984375 65.804688 193.019531 C 64.566406 192.984375 63.292969 188.609375 62.394531 182.960938 C 62.3125 182.40625 61.1875 174.976562 60.828125 173.378906 C 60.777344 173.167969 60.566406 172.921875 60.453125 172.921875 C 60.207031 172.921875 60.011719 173.230469 59.914062 173.6875 C 59.652344 174.878906 58.410156 182.128906 58.246094 182.960938 C 56.761719 190.730469 54.851562 194.0625 50.347656 194.0625 C 48.828125 194.0625 47.128906 192.414062 47.261719 190.652344 C 47.34375 189.394531 48.027344 188.070312 49.675781 188.070312 C 51.601562 188.070312 52.191406 189.558594 52.191406 190.355469 C 52.191406 191.335938 51.261719 192.023438 50.507812 191.808594 C 49.578125 191.546875 49.988281 190.226562 49.59375 190.210938 C 49.074219 190.175781 49.15625 192.183594 50.527344 192.347656 C 51.703125 192.496094 52.597656 191.644531 52.761719 190.519531 C 52.957031 189.214844 52.011719 187.335938 49.691406 187.335938 C 47.898438 187.335938 46.527344 188.871094 46.476562 190.796875 C 46.394531 193.132812 48.46875 194.78125 50.527344 194.78125 Z M 50.527344 194.78125 " fill-opacity="1" fill-rule="nonzero"/><path fill="#909e86" d="M 77.136719 198.46875 C 71.03125 198.46875 67.894531 203.890625 65.953125 205.832031 C 65.902344 205.882812 65.839844 205.980469 65.824219 205.980469 C 65.804688 205.980469 65.742188 205.882812 65.691406 205.832031 C 63.75 203.890625 60.613281 198.46875 54.507812 198.46875 C 46.789062 198.46875 44.679688 203.695312 44.679688 206.910156 C 44.679688 211.1875 48.5 215.15625 54.507812 215.15625 C 60.910156 215.15625 64.335938 209 65.691406 207.644531 C 65.726562 207.613281 65.789062 207.53125 65.824219 207.53125 C 65.855469 207.53125 65.921875 207.613281 65.953125 207.644531 C 67.308594 209 70.738281 215.15625 77.136719 215.15625 C 83.144531 215.15625 86.964844 211.1875 86.964844 206.910156 C 86.964844 203.695312 84.859375 198.46875 77.136719 198.46875 Z M 54.507812 214.140625 C 49.792969 214.140625 45.546875 211.039062 45.546875 206.925781 C 45.546875 202.078125 49.808594 199.382812 54.589844 199.382812 C 59.375 199.382812 65.152344 206.144531 65.152344 206.8125 C 65.152344 207.578125 59.960938 214.140625 54.507812 214.140625 Z M 77.136719 214.140625 C 71.683594 214.140625 66.492188 207.578125 66.492188 206.8125 C 66.492188 206.144531 72.222656 199.382812 77.054688 199.382812 C 81.886719 199.382812 86.097656 202.078125 86.097656 206.925781 C 86.097656 211.039062 81.855469 214.140625 77.136719 214.140625 Z M 77.136719 214.140625 " fill-opacity="1" fill-rule="nonzero"/><g transform="matrix(1, 0, 0, 1, 96, 163)"><g clip-path="url(#94cdb74688)"><g fill="#909e86" fill-opacity="1"><g transform="translate(1.090786, 36.557701)"><g><path d="M 29.109375 -0.46875 C 29.210938 -0.46875 29.265625 -0.390625 29.265625 -0.234375 C 29.265625 -0.078125 29.210938 0 29.109375 0 C 28.503906 0 28.019531 -0.015625 27.65625 -0.046875 L 25.46875 -0.078125 L 23.359375 -0.046875 C 22.992188 -0.015625 22.488281 0 21.84375 0 C 21.789062 0 21.765625 -0.078125 21.765625 -0.234375 C 21.765625 -0.390625 21.789062 -0.46875 21.84375 -0.46875 C 22.832031 -0.46875 23.484375 -0.644531 23.796875 -1 C 24.109375 -1.351562 24.265625 -2.078125 24.265625 -3.171875 L 24.265625 -9.265625 C 24.265625 -10.796875 23.992188 -11.925781 23.453125 -12.65625 C 22.921875 -13.382812 22.097656 -13.75 20.984375 -13.75 C 20.222656 -13.75 19.457031 -13.539062 18.6875 -13.125 C 17.925781 -12.707031 17.234375 -12.148438 16.609375 -11.453125 L 16.609375 -3.171875 C 16.609375 -2.078125 16.765625 -1.351562 17.078125 -1 C 17.390625 -0.644531 18.039062 -0.46875 19.03125 -0.46875 C 19.082031 -0.46875 19.109375 -0.390625 19.109375 -0.234375 C 19.109375 -0.078125 19.082031 0 19.03125 0 C 18.375 0 17.863281 -0.015625 17.5 -0.046875 L 15.359375 -0.078125 L 13.25 -0.046875 C 12.882812 -0.015625 12.390625 0 11.765625 0 C 11.679688 0 11.640625 -0.078125 11.640625 -0.234375 C 11.640625 -0.390625 11.679688 -0.46875 11.765625 -0.46875 C 12.722656 -0.46875 13.359375 -0.644531 13.671875 -1 C 13.984375 -1.351562 14.140625 -2.078125 14.140625 -3.171875 L 14.140625 -9.265625 C 14.140625 -10.796875 13.875 -11.925781 13.34375 -12.65625 C 12.8125 -13.382812 11.984375 -13.75 10.859375 -13.75 C 10.109375 -13.75 9.359375 -13.550781 8.609375 -13.15625 C 7.867188 -12.769531 7.1875 -12.226562 6.5625 -11.53125 L 6.5625 -3.171875 C 6.5625 -2.410156 6.617188 -1.84375 6.734375 -1.46875 C 6.859375 -1.09375 7.085938 -0.832031 7.421875 -0.6875 C 7.765625 -0.539062 8.273438 -0.46875 8.953125 -0.46875 C 9.023438 -0.46875 9.0625 -0.390625 9.0625 -0.234375 C 9.0625 -0.078125 9.023438 0 8.953125 0 C 8.296875 0 7.785156 -0.015625 7.421875 -0.046875 L 5.3125 -0.078125 L 3.203125 -0.046875 C 2.835938 -0.015625 2.34375 0 1.71875 0 C 1.644531 0 1.609375 -0.078125 1.609375 -0.234375 C 1.609375 -0.390625 1.644531 -0.46875 1.71875 -0.46875 C 2.394531 -0.46875 2.894531 -0.539062 3.21875 -0.6875 C 3.550781 -0.832031 3.773438 -1.09375 3.890625 -1.46875 C 4.003906 -1.84375 4.0625 -2.410156 4.0625 -3.171875 L 4.0625 -10.828125 C 4.0625 -11.679688 3.957031 -12.300781 3.75 -12.6875 C 3.539062 -13.082031 3.203125 -13.28125 2.734375 -13.28125 C 2.347656 -13.28125 1.660156 -13.085938 0.671875 -12.703125 L 0.625 -12.703125 C 0.519531 -12.703125 0.441406 -12.757812 0.390625 -12.875 C 0.335938 -12.988281 0.363281 -13.070312 0.46875 -13.125 L 5.15625 -15.390625 L 5.390625 -15.4375 C 5.648438 -15.4375 5.90625 -15.140625 6.15625 -14.546875 C 6.40625 -13.960938 6.539062 -13.191406 6.5625 -12.234375 C 8.363281 -14.421875 10.28125 -15.515625 12.3125 -15.515625 C 13.476562 -15.515625 14.425781 -15.21875 15.15625 -14.625 C 15.882812 -14.039062 16.34375 -13.191406 16.53125 -12.078125 C 17.488281 -13.242188 18.445312 -14.109375 19.40625 -14.671875 C 20.375 -15.234375 21.378906 -15.515625 22.421875 -15.515625 C 23.804688 -15.515625 24.867188 -15.109375 25.609375 -14.296875 C 26.347656 -13.492188 26.71875 -12.296875 26.71875 -10.703125 L 26.71875 -3.171875 C 26.71875 -2.410156 26.773438 -1.84375 26.890625 -1.46875 C 27.015625 -1.09375 27.242188 -0.832031 27.578125 -0.6875 C 27.921875 -0.539062 28.429688 -0.46875 29.109375 -0.46875 Z M 29.109375 -0.46875 "/></g></g></g><g fill="#909e86" fill-opacity="1"><g transform="translate(31.009668, 36.557701)"><g><path d="M 5.359375 -19.890625 C 4.785156 -19.890625 4.332031 -20.046875 4 -20.359375 C 3.675781 -20.671875 3.515625 -21.113281 3.515625 -21.6875 C 3.515625 -22.207031 3.675781 -22.625 4 -22.9375 C 4.332031 -23.25 4.785156 -23.40625 5.359375 -23.40625 C 5.898438 -23.40625 6.328125 -23.25 6.640625 -22.9375 C 6.953125 -22.625 7.109375 -22.207031 7.109375 -21.6875 C 7.109375 -21.113281 6.953125 -20.671875 6.640625 -20.359375 C 6.328125 -20.046875 5.898438 -19.890625 5.359375 -19.890625 Z M 2 0 C 1.914062 0 1.875 -0.078125 1.875 -0.234375 C 1.875 -0.390625 1.914062 -0.46875 2 -0.46875 C 2.957031 -0.46875 3.59375 -0.644531 3.90625 -1 C 4.21875 -1.351562 4.375 -2.078125 4.375 -3.171875 L 4.375 -10.4375 C 4.375 -11.34375 4.28125 -12.003906 4.09375 -12.421875 C 3.914062 -12.835938 3.59375 -13.046875 3.125 -13.046875 C 2.6875 -13.046875 2.113281 -12.863281 1.40625 -12.5 L 1.375 -12.5 C 1.269531 -12.5 1.191406 -12.5625 1.140625 -12.6875 C 1.085938 -12.820312 1.113281 -12.914062 1.21875 -12.96875 L 6.40625 -15.390625 L 6.5625 -15.4375 C 6.644531 -15.4375 6.726562 -15.394531 6.8125 -15.3125 C 6.90625 -15.238281 6.953125 -15.160156 6.953125 -15.078125 C 6.953125 -14.898438 6.9375 -14.378906 6.90625 -13.515625 C 6.882812 -12.660156 6.875 -11.644531 6.875 -10.46875 L 6.875 -3.171875 C 6.875 -2.410156 6.929688 -1.84375 7.046875 -1.46875 C 7.171875 -1.09375 7.398438 -0.832031 7.734375 -0.6875 C 8.078125 -0.539062 8.585938 -0.46875 9.265625 -0.46875 C 9.335938 -0.46875 9.375 -0.390625 9.375 -0.234375 C 9.375 -0.078125 9.335938 0 9.265625 0 C 8.609375 0 8.097656 -0.015625 7.734375 -0.046875 L 5.625 -0.078125 L 3.4375 -0.046875 C 3.070312 -0.015625 2.59375 0 2 0 Z M 2 0 "/></g></g></g><g fill="#909e86" fill-opacity="1"><g transform="translate(41.594546, 36.557701)"><g><path d="M 19.453125 -0.46875 C 19.535156 -0.46875 19.578125 -0.390625 19.578125 -0.234375 C 19.578125 -0.078125 19.535156 0 19.453125 0 C 18.804688 0 18.300781 -0.015625 17.9375 -0.046875 L 15.828125 -0.078125 L 13.71875 -0.046875 C 13.351562 -0.015625 12.859375 0 12.234375 0 C 12.148438 0 12.109375 -0.078125 12.109375 -0.234375 C 12.109375 -0.390625 12.148438 -0.46875 12.234375 -0.46875 C 12.910156 -0.46875 13.410156 -0.539062 13.734375 -0.6875 C 14.054688 -0.832031 14.273438 -1.09375 14.390625 -1.46875 C 14.515625 -1.84375 14.578125 -2.410156 14.578125 -3.171875 L 14.578125 -9.375 C 14.578125 -10.882812 14.296875 -12 13.734375 -12.71875 C 13.171875 -13.4375 12.28125 -13.796875 11.0625 -13.796875 C 10.300781 -13.796875 9.523438 -13.597656 8.734375 -13.203125 C 7.941406 -12.816406 7.21875 -12.269531 6.5625 -11.5625 L 6.5625 -3.171875 C 6.5625 -2.410156 6.617188 -1.84375 6.734375 -1.46875 C 6.859375 -1.09375 7.085938 -0.832031 7.421875 -0.6875 C 7.765625 -0.539062 8.273438 -0.46875 8.953125 -0.46875 C 9.023438 -0.46875 9.0625 -0.390625 9.0625 -0.234375 C 9.0625 -0.078125 9.023438 0 8.953125 0 C 8.296875 0 7.785156 -0.015625 7.421875 -0.046875 L 5.3125 -0.078125 L 3.203125 -0.046875 C 2.835938 -0.015625 2.34375 0 1.71875 0 C 1.644531 0 1.609375 -0.078125 1.609375 -0.234375 C 1.609375 -0.390625 1.644531 -0.46875 1.71875 -0.46875 C 2.394531 -0.46875 2.894531 -0.539062 3.21875 -0.6875 C 3.550781 -0.832031 3.773438 -1.09375 3.890625 -1.46875 C 4.003906 -1.84375 4.0625 -2.410156 4.0625 -3.171875 L 4.0625 -10.828125 C 4.0625 -11.679688 3.957031 -12.300781 3.75 -12.6875 C 3.539062 -13.082031 3.203125 -13.28125 2.734375 -13.28125 C 2.347656 -13.28125 1.660156 -13.085938 0.671875 -12.703125 L 0.625 -12.703125 C 0.519531 -12.703125 0.441406 -12.757812 0.390625 -12.875 C 0.335938 -12.988281 0.363281 -13.070312 0.46875 -13.125 L 5.15625 -15.390625 L 5.390625 -15.4375 C 5.648438 -15.4375 5.90625 -15.140625 6.15625 -14.546875 C 6.40625 -13.960938 6.539062 -13.191406 6.5625 -12.234375 C 8.46875 -14.472656 10.460938 -15.59375 12.546875 -15.59375 C 13.972656 -15.59375 15.082031 -15.175781 15.875 -14.34375 C 16.675781 -13.507812 17.078125 -12.320312 17.078125 -10.78125 L 17.078125 -3.171875 C 17.078125 -2.410156 17.132812 -1.84375 17.25 -1.46875 C 17.363281 -1.09375 17.585938 -0.832031 17.921875 -0.6875 C 18.265625 -0.539062 18.773438 -0.46875 19.453125 -0.46875 Z M 19.453125 -0.46875 "/></g></g></g><g fill="#909e86" fill-opacity="1"><g transform="translate(61.865958, 36.557701)"><g><path d="M 19.765625 -2.265625 C 19.847656 -2.265625 19.914062 -2.195312 19.96875 -2.0625 C 20.019531 -1.9375 20.003906 -1.863281 19.921875 -1.84375 L 15.4375 0.3125 C 15.28125 0.363281 15.1875 0.390625 15.15625 0.390625 C 14.820312 0.390625 14.535156 0.117188 14.296875 -0.421875 C 14.066406 -0.972656 13.9375 -1.742188 13.90625 -2.734375 C 12.96875 -1.773438 11.976562 -0.992188 10.9375 -0.390625 C 9.894531 0.210938 8.75 0.515625 7.5 0.515625 C 6.40625 0.515625 5.390625 0.207031 4.453125 -0.40625 C 3.515625 -1.019531 2.765625 -1.898438 2.203125 -3.046875 C 1.648438 -4.191406 1.375 -5.507812 1.375 -7 C 1.375 -8.875 1.828125 -10.453125 2.734375 -11.734375 C 3.648438 -13.023438 4.796875 -13.988281 6.171875 -14.625 C 7.554688 -15.269531 8.9375 -15.59375 10.3125 -15.59375 C 11.644531 -15.59375 12.84375 -15.289062 13.90625 -14.6875 L 13.90625 -23.28125 C 13.90625 -24.21875 13.8125 -24.890625 13.625 -25.296875 C 13.445312 -25.703125 13.125 -25.90625 12.65625 -25.90625 C 12.320312 -25.90625 11.75 -25.734375 10.9375 -25.390625 L 10.859375 -25.390625 C 10.753906 -25.390625 10.679688 -25.445312 10.640625 -25.5625 C 10.609375 -25.6875 10.628906 -25.773438 10.703125 -25.828125 L 15.78125 -28.28125 C 15.832031 -28.3125 15.898438 -28.328125 15.984375 -28.328125 C 16.054688 -28.328125 16.140625 -28.285156 16.234375 -28.203125 C 16.328125 -28.128906 16.375 -28.050781 16.375 -27.96875 L 16.375 -4.34375 C 16.375 -3.40625 16.476562 -2.734375 16.6875 -2.328125 C 16.894531 -1.921875 17.242188 -1.71875 17.734375 -1.71875 C 18.390625 -1.71875 19.039062 -1.898438 19.6875 -2.265625 Z M 9.140625 -0.984375 C 10.023438 -0.984375 10.851562 -1.195312 11.625 -1.625 C 12.394531 -2.050781 13.15625 -2.65625 13.90625 -3.4375 L 13.90625 -12.1875 C 13.332031 -13.019531 12.679688 -13.65625 11.953125 -14.09375 C 11.222656 -14.539062 10.351562 -14.765625 9.34375 -14.765625 C 7.75 -14.765625 6.488281 -14.195312 5.5625 -13.0625 C 4.644531 -11.9375 4.1875 -10.304688 4.1875 -8.171875 C 4.1875 -6.003906 4.644531 -4.265625 5.5625 -2.953125 C 6.488281 -1.640625 7.679688 -0.984375 9.140625 -0.984375 Z M 9.140625 -0.984375 "/></g></g></g><g fill="#909e86" fill-opacity="1"><g transform="translate(81.863957, 36.557701)"><g><path d="M 12.46875 -28.359375 C 13.820312 -28.359375 14.921875 -28.15625 15.765625 -27.75 C 16.609375 -27.351562 17.03125 -26.851562 17.03125 -26.25 C 17.03125 -25.832031 16.878906 -25.5 16.578125 -25.25 C 16.285156 -25.007812 15.941406 -24.890625 15.546875 -24.890625 C 15.179688 -24.890625 14.878906 -24.972656 14.640625 -25.140625 C 14.410156 -25.304688 14.15625 -25.597656 13.875 -26.015625 C 13.507812 -26.566406 13.109375 -26.976562 12.671875 -27.25 C 12.242188 -27.519531 11.707031 -27.65625 11.0625 -27.65625 C 9.601562 -27.65625 8.445312 -26.789062 7.59375 -25.0625 C 6.75 -23.332031 6.328125 -20.695312 6.328125 -17.15625 L 6.328125 -14.65625 C 7.941406 -14.726562 9.570312 -14.859375 11.21875 -15.046875 C 11.289062 -15.046875 11.351562 -14.953125 11.40625 -14.765625 C 11.457031 -14.585938 11.484375 -14.378906 11.484375 -14.140625 C 11.484375 -13.910156 11.441406 -13.679688 11.359375 -13.453125 C 11.285156 -13.234375 11.195312 -13.140625 11.09375 -13.171875 C 9.738281 -13.503906 8.148438 -13.695312 6.328125 -13.75 L 6.328125 -3.171875 C 6.328125 -2.359375 6.410156 -1.769531 6.578125 -1.40625 C 6.753906 -1.039062 7.101562 -0.789062 7.625 -0.65625 C 8.144531 -0.53125 8.976562 -0.46875 10.125 -0.46875 C 10.195312 -0.46875 10.234375 -0.390625 10.234375 -0.234375 C 10.234375 -0.078125 10.195312 0 10.125 0 L 7.546875 -0.046875 C 6.992188 -0.0664062 6.160156 -0.078125 5.046875 -0.078125 L 2.8125 -0.046875 C 2.425781 -0.015625 1.894531 0 1.21875 0 C 1.132812 0 1.09375 -0.078125 1.09375 -0.234375 C 1.09375 -0.390625 1.132812 -0.46875 1.21875 -0.46875 C 1.96875 -0.46875 2.523438 -0.53125 2.890625 -0.65625 C 3.253906 -0.789062 3.5 -1.046875 3.625 -1.421875 C 3.757812 -1.804688 3.828125 -2.390625 3.828125 -3.171875 L 3.828125 -11.953125 C 3.828125 -12.609375 3.757812 -13.070312 3.625 -13.34375 C 3.5 -13.613281 3.253906 -13.796875 2.890625 -13.890625 C 2.523438 -13.984375 1.914062 -14.03125 1.0625 -14.03125 C 0.976562 -14.03125 0.9375 -14.117188 0.9375 -14.296875 C 0.9375 -14.484375 0.976562 -14.578125 1.0625 -14.578125 C 2.101562 -14.578125 2.8125 -14.695312 3.1875 -14.9375 C 3.5625 -15.1875 3.765625 -15.648438 3.796875 -16.328125 C 3.921875 -20.578125 4.691406 -23.644531 6.109375 -25.53125 C 7.535156 -27.414062 9.65625 -28.359375 12.46875 -28.359375 Z M 12.46875 -28.359375 "/></g></g></g><g fill="#909e86" fill-opacity="1"><g transform="translate(93.776827, 36.557701)"><g><path d="M 19.109375 -2.3125 C 19.210938 -2.3125 19.28125 -2.242188 19.3125 -2.109375 C 19.351562 -1.984375 19.335938 -1.894531 19.265625 -1.84375 L 14.53125 0.390625 L 14.375 0.4375 C 14.113281 0.4375 13.863281 0.121094 13.625 -0.5 C 13.394531 -1.132812 13.28125 -1.945312 13.28125 -2.9375 C 11.332031 -0.738281 9.300781 0.359375 7.1875 0.359375 C 5.863281 0.359375 4.820312 -0.0546875 4.0625 -0.890625 C 3.3125 -1.734375 2.9375 -2.921875 2.9375 -4.453125 L 2.9375 -10.4375 C 2.9375 -11.425781 2.847656 -12.140625 2.671875 -12.578125 C 2.503906 -13.023438 2.210938 -13.25 1.796875 -13.25 C 1.484375 -13.25 1.054688 -13.128906 0.515625 -12.890625 L 0.4375 -12.890625 C 0.351562 -12.890625 0.289062 -12.953125 0.25 -13.078125 C 0.21875 -13.210938 0.238281 -13.296875 0.3125 -13.328125 L 4.8125 -15.390625 L 4.96875 -15.4375 C 5.039062 -15.4375 5.128906 -15.394531 5.234375 -15.3125 C 5.335938 -15.238281 5.390625 -15.160156 5.390625 -15.078125 L 5.390625 -5.90625 C 5.390625 -2.90625 6.484375 -1.40625 8.671875 -1.40625 C 9.453125 -1.40625 10.242188 -1.597656 11.046875 -1.984375 C 11.859375 -2.378906 12.601562 -2.929688 13.28125 -3.640625 L 13.28125 -10.4375 C 13.28125 -11.425781 13.1875 -12.140625 13 -12.578125 C 12.820312 -13.023438 12.523438 -13.25 12.109375 -13.25 C 11.796875 -13.25 11.367188 -13.128906 10.828125 -12.890625 L 10.75 -12.890625 C 10.664062 -12.890625 10.609375 -12.953125 10.578125 -13.078125 C 10.554688 -13.210938 10.585938 -13.296875 10.671875 -13.328125 L 15.15625 -15.390625 L 15.3125 -15.4375 C 15.394531 -15.4375 15.476562 -15.394531 15.5625 -15.3125 C 15.65625 -15.238281 15.703125 -15.160156 15.703125 -15.078125 L 15.703125 -4.265625 C 15.703125 -3.378906 15.804688 -2.738281 16.015625 -2.34375 C 16.222656 -1.957031 16.5625 -1.765625 17.03125 -1.765625 C 17.425781 -1.765625 18.09375 -1.929688 19.03125 -2.265625 Z M 19.109375 -2.3125 "/></g></g></g><g fill="#909e86" fill-opacity="1"><g transform="translate(113.11083, 36.557701)"><g><path d="M 1.53125 0 C 1.445312 0 1.40625 -0.078125 1.40625 -0.234375 C 1.40625 -0.390625 1.445312 -0.46875 1.53125 -0.46875 C 2.488281 -0.46875 3.125 -0.644531 3.4375 -1 C 3.75 -1.351562 3.90625 -2.078125 3.90625 -3.171875 L 3.90625 -23.28125 C 3.90625 -24.21875 3.820312 -24.894531 3.65625 -25.3125 C 3.488281 -25.726562 3.179688 -25.9375 2.734375 -25.9375 C 2.347656 -25.9375 1.765625 -25.753906 0.984375 -25.390625 L 0.9375 -25.390625 C 0.832031 -25.390625 0.75 -25.460938 0.6875 -25.609375 C 0.625 -25.753906 0.644531 -25.835938 0.75 -25.859375 L 5.90625 -28.28125 L 6.0625 -28.328125 C 6.132812 -28.328125 6.222656 -28.285156 6.328125 -28.203125 C 6.429688 -28.128906 6.484375 -28.050781 6.484375 -27.96875 L 6.484375 -3.171875 C 6.484375 -2.078125 6.632812 -1.351562 6.9375 -1 C 7.238281 -0.644531 7.882812 -0.46875 8.875 -0.46875 C 8.945312 -0.46875 8.984375 -0.390625 8.984375 -0.234375 C 8.984375 -0.078125 8.945312 0 8.875 0 C 8.25 0 7.738281 -0.015625 7.34375 -0.046875 L 5.203125 -0.078125 L 3.015625 -0.046875 C 2.648438 -0.015625 2.15625 0 1.53125 0 Z M 1.53125 0 "/></g></g></g><g fill="#909e86" fill-opacity="1"><g transform="translate(123.266063, 36.557701)"><g><path d="M 29.109375 -0.46875 C 29.210938 -0.46875 29.265625 -0.390625 29.265625 -0.234375 C 29.265625 -0.078125 29.210938 0 29.109375 0 C 28.503906 0 28.019531 -0.015625 27.65625 -0.046875 L 25.46875 -0.078125 L 23.359375 -0.046875 C 22.992188 -0.015625 22.488281 0 21.84375 0 C 21.789062 0 21.765625 -0.078125 21.765625 -0.234375 C 21.765625 -0.390625 21.789062 -0.46875 21.84375 -0.46875 C 22.832031 -0.46875 23.484375 -0.644531 23.796875 -1 C 24.109375 -1.351562 24.265625 -2.078125 24.265625 -3.171875 L 24.265625 -9.265625 C 24.265625 -10.796875 23.992188 -11.925781 23.453125 -12.65625 C 22.921875 -13.382812 22.097656 -13.75 20.984375 -13.75 C 20.222656 -13.75 19.457031 -13.539062 18.6875 -13.125 C 17.925781 -12.707031 17.234375 -12.148438 16.609375 -11.453125 L 16.609375 -3.171875 C 16.609375 -2.078125 16.765625 -1.351562 17.078125 -1 C 17.390625 -0.644531 18.039062 -0.46875 19.03125 -0.46875 C 19.082031 -0.46875 19.109375 -0.390625 19.109375 -0.234375 C 19.109375 -0.078125 19.082031 0 19.03125 0 C 18.375 0 17.863281 -0.015625 17.5 -0.046875 L 15.359375 -0.078125 L 13.25 -0.046875 C 12.882812 -0.015625 12.390625 0 11.765625 0 C 11.679688 0 11.640625 -0.078125 11.640625 -0.234375 C 11.640625 -0.390625 11.679688 -0.46875 11.765625 -0.46875 C 12.722656 -0.46875 13.359375 -0.644531 13.671875 -1 C 13.984375 -1.351562 14.140625 -2.078125 14.140625 -3.171875 L 14.140625 -9.265625 C 14.140625 -10.796875 13.875 -11.925781 13.34375 -12.65625 C 12.8125 -13.382812 11.984375 -13.75 10.859375 -13.75 C 10.109375 -13.75 9.359375 -13.550781 8.609375 -13.15625 C 7.867188 -12.769531 7.1875 -12.226562 6.5625 -11.53125 L 6.5625 -3.171875 C 6.5625 -2.410156 6.617188 -1.84375 6.734375 -1.46875 C 6.859375 -1.09375 7.085938 -0.832031 7.421875 -0.6875 C 7.765625 -0.539062 8.273438 -0.46875 8.953125 -0.46875 C 9.023438 -0.46875 9.0625 -0.390625 9.0625 -0.234375 C 9.0625 -0.078125 9.023438 0 8.953125 0 C 8.296875 0 7.785156 -0.015625 7.421875 -0.046875 L 5.3125 -0.078125 L 3.203125 -0.046875 C 2.835938 -0.015625 2.34375 0 1.71875 0 C 1.644531 0 1.609375 -0.078125 1.609375 -0.234375 C 1.609375 -0.390625 1.644531 -0.46875 1.71875 -0.46875 C 2.394531 -0.46875 2.894531 -0.539062 3.21875 -0.6875 C 3.550781 -0.832031 3.773438 -1.09375 3.890625 -1.46875 C 4.003906 -1.84375 4.0625 -2.410156 4.0625 -3.171875 L 4.0625 -10.828125 C 4.0625 -11.679688 3.957031 -12.300781 3.75 -12.6875 C 3.539062 -13.082031 3.203125 -13.28125 2.734375 -13.28125 C 2.347656 -13.28125 1.660156 -13.085938 0.671875 -12.703125 L 0.625 -12.703125 C 0.519531 -12.703125 0.441406 -12.757812 0.390625 -12.875 C 0.335938 -12.988281 0.363281 -13.070312 0.46875 -13.125 L 5.15625 -15.390625 L 5.390625 -15.4375 C 5.648438 -15.4375 5.90625 -15.140625 6.15625 -14.546875 C 6.40625 -13.960938 6.539062 -13.191406 6.5625 -12.234375 C 8.363281 -14.421875 10.28125 -15.515625 12.3125 -15.515625 C 13.476562 -15.515625 14.425781 -15.21875 15.15625 -14.625 C 15.882812 -14.039062 16.34375 -13.191406 16.53125 -12.078125 C 17.488281 -13.242188 18.445312 -14.109375 19.40625 -14.671875 C 20.375 -15.234375 21.378906 -15.515625 22.421875 -15.515625 C 23.804688 -15.515625 24.867188 -15.109375 25.609375 -14.296875 C 26.347656 -13.492188 26.71875 -12.296875 26.71875 -10.703125 L 26.71875 -3.171875 C 26.71875 -2.410156 26.773438 -1.84375 26.890625 -1.46875 C 27.015625 -1.09375 27.242188 -0.832031 27.578125 -0.6875 C 27.921875 -0.539062 28.429688 -0.46875 29.109375 -0.46875 Z M 29.109375 -0.46875 "/></g></g></g><g fill="#909e86" fill-opacity="1"><g transform="translate(153.184944, 36.557701)"><g><path d="M 16.25 -2.109375 C 16.351562 -2.109375 16.414062 -2.050781 16.4375 -1.9375 C 16.46875 -1.820312 16.429688 -1.738281 16.328125 -1.6875 L 12.3125 0.234375 C 12.207031 0.285156 12.085938 0.3125 11.953125 0.3125 C 11.617188 0.3125 11.3125 0.0820312 11.03125 -0.375 C 10.757812 -0.832031 10.570312 -1.453125 10.46875 -2.234375 L 8.515625 -0.9375 C 7.890625 -0.5 7.320312 -0.1875 6.8125 0 C 6.3125 0.1875 5.773438 0.28125 5.203125 0.28125 C 4.210938 0.28125 3.441406 0.0234375 2.890625 -0.484375 C 2.347656 -0.992188 2.078125 -1.640625 2.078125 -2.421875 C 2.078125 -3.253906 2.40625 -3.953125 3.0625 -4.515625 C 3.726562 -5.078125 4.789062 -5.628906 6.25 -6.171875 L 10.4375 -7.703125 L 10.4375 -10.28125 C 10.4375 -11.84375 10.234375 -12.972656 9.828125 -13.671875 C 9.421875 -14.378906 8.828125 -14.734375 8.046875 -14.734375 C 7.191406 -14.734375 6.539062 -14.429688 6.09375 -13.828125 C 5.65625 -13.234375 5.367188 -12.554688 5.234375 -11.796875 C 5.078125 -10.648438 4.546875 -10.078125 3.640625 -10.078125 C 3.171875 -10.078125 2.816406 -10.191406 2.578125 -10.421875 C 2.347656 -10.660156 2.234375 -10.953125 2.234375 -11.296875 C 2.234375 -11.941406 2.640625 -12.585938 3.453125 -13.234375 C 4.273438 -13.890625 5.265625 -14.425781 6.421875 -14.84375 C 7.585938 -15.257812 8.613281 -15.46875 9.5 -15.46875 C 10.5625 -15.46875 11.382812 -15.125 11.96875 -14.4375 C 12.5625 -13.75 12.859375 -12.753906 12.859375 -11.453125 L 12.859375 -4.21875 C 12.859375 -3.332031 12.976562 -2.679688 13.21875 -2.265625 C 13.46875 -1.847656 13.851562 -1.640625 14.375 -1.640625 C 14.84375 -1.640625 15.441406 -1.796875 16.171875 -2.109375 Z M 10.4375 -2.8125 L 10.4375 -7.15625 L 7.15625 -5.828125 C 6.445312 -5.566406 5.910156 -5.242188 5.546875 -4.859375 C 5.179688 -4.484375 5 -4.007812 5 -3.4375 C 5 -2.8125 5.203125 -2.296875 5.609375 -1.890625 C 6.015625 -1.492188 6.53125 -1.296875 7.15625 -1.296875 C 7.675781 -1.296875 8.257812 -1.488281 8.90625 -1.875 Z M 10.4375 -2.8125 "/></g></g></g><g fill="#909e86" fill-opacity="1"><g transform="translate(169.589552, 36.557701)"><g><path d="M 10.90625 -15.4375 C 11.476562 -15.4375 12.03125 -15.265625 12.5625 -14.921875 C 13.09375 -14.585938 13.359375 -14.1875 13.359375 -13.71875 C 13.359375 -13.351562 13.234375 -13.046875 12.984375 -12.796875 C 12.742188 -12.546875 12.414062 -12.421875 12 -12.421875 C 11.738281 -12.421875 11.515625 -12.472656 11.328125 -12.578125 C 11.148438 -12.679688 10.941406 -12.835938 10.703125 -13.046875 C 10.441406 -13.253906 10.210938 -13.410156 10.015625 -13.515625 C 9.828125 -13.617188 9.585938 -13.671875 9.296875 -13.671875 C 8.960938 -13.671875 8.617188 -13.539062 8.265625 -13.28125 C 7.910156 -13.019531 7.34375 -12.445312 6.5625 -11.5625 L 6.5625 -3.171875 C 6.5625 -2.410156 6.660156 -1.84375 6.859375 -1.46875 C 7.054688 -1.09375 7.414062 -0.832031 7.9375 -0.6875 C 8.457031 -0.539062 9.25 -0.46875 10.3125 -0.46875 C 10.394531 -0.46875 10.4375 -0.390625 10.4375 -0.234375 C 10.4375 -0.078125 10.394531 0 10.3125 0 C 9.457031 0 8.769531 -0.015625 8.25 -0.046875 L 5.3125 -0.078125 L 3.203125 -0.046875 C 2.835938 -0.015625 2.34375 0 1.71875 0 C 1.644531 0 1.609375 -0.078125 1.609375 -0.234375 C 1.609375 -0.390625 1.644531 -0.46875 1.71875 -0.46875 C 2.394531 -0.46875 2.894531 -0.539062 3.21875 -0.6875 C 3.550781 -0.832031 3.773438 -1.09375 3.890625 -1.46875 C 4.003906 -1.84375 4.0625 -2.410156 4.0625 -3.171875 L 4.0625 -10.828125 C 4.0625 -11.679688 3.957031 -12.300781 3.75 -12.6875 C 3.539062 -13.082031 3.203125 -13.28125 2.734375 -13.28125 C 2.347656 -13.28125 1.660156 -13.085938 0.671875 -12.703125 L 0.625 -12.703125 C 0.519531 -12.703125 0.441406 -12.757812 0.390625 -12.875 C 0.335938 -12.988281 0.363281 -13.070312 0.46875 -13.125 L 5.15625 -15.390625 L 5.390625 -15.4375 C 5.648438 -15.4375 5.90625 -15.140625 6.15625 -14.546875 C 6.40625 -13.960938 6.539062 -13.203125 6.5625 -12.265625 C 7.632812 -13.492188 8.484375 -14.328125 9.109375 -14.765625 C 9.734375 -15.210938 10.332031 -15.4375 10.90625 -15.4375 Z M 10.90625 -15.4375 "/></g></g></g><g fill="#909e86" fill-opacity="1"><g transform="translate(183.924055, 36.557701)"><g><path d="M 18.984375 -0.46875 C 19.035156 -0.46875 19.0625 -0.390625 19.0625 -0.234375 C 19.0625 -0.078125 19.035156 0 18.984375 0 C 18.335938 0 17.832031 -0.015625 17.46875 -0.046875 L 15.359375 -0.078125 L 12.5 -0.046875 C 12.082031 -0.015625 11.507812 0 10.78125 0 C 10.726562 0 10.703125 -0.078125 10.703125 -0.234375 C 10.703125 -0.390625 10.726562 -0.46875 10.78125 -0.46875 C 12.03125 -0.46875 12.65625 -0.726562 12.65625 -1.25 C 12.65625 -1.488281 12.539062 -1.765625 12.3125 -2.078125 L 7.546875 -8.4375 L 5.828125 -7.078125 L 5.828125 -3.171875 C 5.828125 -2.078125 5.984375 -1.351562 6.296875 -1 C 6.609375 -0.644531 7.257812 -0.46875 8.25 -0.46875 C 8.320312 -0.46875 8.359375 -0.390625 8.359375 -0.234375 C 8.359375 -0.078125 8.320312 0 8.25 0 C 7.59375 0 7.082031 -0.015625 6.71875 -0.046875 L 4.609375 -0.078125 L 2.421875 -0.046875 C 2.054688 -0.015625 1.578125 0 0.984375 0 C 0.898438 0 0.859375 -0.078125 0.859375 -0.234375 C 0.859375 -0.390625 0.898438 -0.46875 0.984375 -0.46875 C 1.941406 -0.46875 2.578125 -0.644531 2.890625 -1 C 3.203125 -1.351562 3.359375 -2.078125 3.359375 -3.171875 L 3.359375 -23.28125 C 3.359375 -24.21875 3.265625 -24.894531 3.078125 -25.3125 C 2.898438 -25.726562 2.59375 -25.9375 2.15625 -25.9375 C 1.789062 -25.9375 1.21875 -25.753906 0.4375 -25.390625 L 0.390625 -25.390625 C 0.285156 -25.390625 0.203125 -25.453125 0.140625 -25.578125 C 0.078125 -25.710938 0.0976562 -25.804688 0.203125 -25.859375 L 5.234375 -28.28125 L 5.4375 -28.328125 C 5.507812 -28.328125 5.59375 -28.285156 5.6875 -28.203125 C 5.78125 -28.128906 5.828125 -28.050781 5.828125 -27.96875 L 5.828125 -7.734375 L 10.78125 -11.875 C 11.59375 -12.53125 12 -13.101562 12 -13.59375 C 12 -13.90625 11.820312 -14.148438 11.46875 -14.328125 C 11.113281 -14.515625 10.585938 -14.609375 9.890625 -14.609375 C 9.804688 -14.609375 9.765625 -14.6875 9.765625 -14.84375 C 9.765625 -15 9.804688 -15.078125 9.890625 -15.078125 C 10.617188 -15.078125 11.164062 -15.066406 11.53125 -15.046875 L 14.421875 -15 L 17.078125 -15.046875 C 17.441406 -15.066406 17.921875 -15.078125 18.515625 -15.078125 C 18.566406 -15.078125 18.59375 -15 18.59375 -14.84375 C 18.59375 -14.6875 18.566406 -14.609375 18.515625 -14.609375 C 17.503906 -14.609375 16.390625 -14.367188 15.171875 -13.890625 C 13.960938 -13.410156 12.773438 -12.6875 11.609375 -11.71875 L 9.453125 -10 L 14.53125 -3.171875 C 15.832031 -1.367188 17.316406 -0.46875 18.984375 -0.46875 Z M 18.984375 -0.46875 "/></g></g></g><g fill="#909e86" fill-opacity="1"><g transform="translate(203.101825, 36.557701)"><g><path d="M 19.109375 -2.3125 C 19.210938 -2.3125 19.28125 -2.242188 19.3125 -2.109375 C 19.351562 -1.984375 19.335938 -1.894531 19.265625 -1.84375 L 14.53125 0.390625 L 14.375 0.4375 C 14.113281 0.4375 13.863281 0.121094 13.625 -0.5 C 13.394531 -1.132812 13.28125 -1.945312 13.28125 -2.9375 C 11.332031 -0.738281 9.300781 0.359375 7.1875 0.359375 C 5.863281 0.359375 4.820312 -0.0546875 4.0625 -0.890625 C 3.3125 -1.734375 2.9375 -2.921875 2.9375 -4.453125 L 2.9375 -10.4375 C 2.9375 -11.425781 2.847656 -12.140625 2.671875 -12.578125 C 2.503906 -13.023438 2.210938 -13.25 1.796875 -13.25 C 1.484375 -13.25 1.054688 -13.128906 0.515625 -12.890625 L 0.4375 -12.890625 C 0.351562 -12.890625 0.289062 -12.953125 0.25 -13.078125 C 0.21875 -13.210938 0.238281 -13.296875 0.3125 -13.328125 L 4.8125 -15.390625 L 4.96875 -15.4375 C 5.039062 -15.4375 5.128906 -15.394531 5.234375 -15.3125 C 5.335938 -15.238281 5.390625 -15.160156 5.390625 -15.078125 L 5.390625 -5.90625 C 5.390625 -2.90625 6.484375 -1.40625 8.671875 -1.40625 C 9.453125 -1.40625 10.242188 -1.597656 11.046875 -1.984375 C 11.859375 -2.378906 12.601562 -2.929688 13.28125 -3.640625 L 13.28125 -10.4375 C 13.28125 -11.425781 13.1875 -12.140625 13 -12.578125 C 12.820312 -13.023438 12.523438 -13.25 12.109375 -13.25 C 11.796875 -13.25 11.367188 -13.128906 10.828125 -12.890625 L 10.75 -12.890625 C 10.664062 -12.890625 10.609375 -12.953125 10.578125 -13.078125 C 10.554688 -13.210938 10.585938 -13.296875 10.671875 -13.328125 L 15.15625 -15.390625 L 15.3125 -15.4375 C 15.394531 -15.4375 15.476562 -15.394531 15.5625 -15.3125 C 15.65625 -15.238281 15.703125 -15.160156 15.703125 -15.078125 L 15.703125 -4.265625 C 15.703125 -3.378906 15.804688 -2.738281 16.015625 -2.34375 C 16.222656 -1.957031 16.5625 -1.765625 17.03125 -1.765625 C 17.425781 -1.765625 18.09375 -1.929688 19.03125 -2.265625 Z M 19.109375 -2.3125 "/></g></g></g><g fill="#909e86" fill-opacity="1"><g transform="translate(222.435828, 36.557701)"><g><path d="M 4.0625 -12.8125 C 4.0625 -11.925781 4.347656 -11.207031 4.921875 -10.65625 C 5.492188 -10.113281 6.351562 -9.546875 7.5 -8.953125 C 8.414062 -8.484375 9.132812 -8.078125 9.65625 -7.734375 C 10.175781 -7.398438 10.617188 -6.953125 10.984375 -6.390625 C 11.347656 -5.828125 11.53125 -5.15625 11.53125 -4.375 C 11.53125 -3.050781 11.035156 -1.914062 10.046875 -0.96875 C 9.054688 -0.03125 7.6875 0.4375 5.9375 0.4375 C 5.257812 0.4375 4.613281 0.34375 4 0.15625 C 3.394531 -0.0273438 2.78125 -0.332031 2.15625 -0.75 C 2 -0.851562 1.921875 -1.007812 1.921875 -1.21875 L 1.84375 -4.375 C 1.84375 -4.457031 1.910156 -4.503906 2.046875 -4.515625 C 2.191406 -4.523438 2.28125 -4.492188 2.3125 -4.421875 C 2.78125 -3.117188 3.429688 -2.109375 4.265625 -1.390625 C 5.097656 -0.671875 6.035156 -0.3125 7.078125 -0.3125 C 7.828125 -0.3125 8.410156 -0.492188 8.828125 -0.859375 C 9.242188 -1.222656 9.453125 -1.769531 9.453125 -2.5 C 9.453125 -3.539062 9.160156 -4.34375 8.578125 -4.90625 C 7.992188 -5.46875 7.113281 -6.046875 5.9375 -6.640625 C 5.050781 -7.085938 4.359375 -7.476562 3.859375 -7.8125 C 3.367188 -8.15625 2.945312 -8.597656 2.59375 -9.140625 C 2.25 -9.691406 2.078125 -10.367188 2.078125 -11.171875 C 2.078125 -12.609375 2.601562 -13.695312 3.65625 -14.4375 C 4.707031 -15.175781 5.976562 -15.546875 7.46875 -15.546875 C 8.507812 -15.546875 9.484375 -15.351562 10.390625 -14.96875 C 10.628906 -14.863281 10.75 -14.71875 10.75 -14.53125 C 10.75 -13.988281 10.734375 -13.5625 10.703125 -13.25 L 10.671875 -11.5625 C 10.671875 -11.507812 10.59375 -11.484375 10.4375 -11.484375 C 10.28125 -11.484375 10.203125 -11.507812 10.203125 -11.5625 C 10.203125 -12.375 9.765625 -13.109375 8.890625 -13.765625 C 8.015625 -14.429688 7.082031 -14.765625 6.09375 -14.765625 C 5.46875 -14.765625 4.972656 -14.609375 4.609375 -14.296875 C 4.242188 -13.984375 4.0625 -13.488281 4.0625 -12.8125 Z M 4.0625 -12.8125 "/></g></g></g></g></g></svg>